<mxfile host="app.diagrams.net" modified="2021-03-23T10:21:13.763Z" agent="5.0 (Macintosh; Intel Mac OS X 11_2_3) AppleWebKit/537.36 (KHTML, like Gecko) Chrome/89.0.4389.90 Safari/537.36" etag="3KosivfdAvKa-uMM-Huz" version="14.4.9" type="github">
  <diagram id="6rYUq82egzvNeSZCUPf-" name="第 1 页">
    <mxGraphModel dx="2289" dy="800" grid="1" gridSize="10" guides="1" tooltips="1" connect="1" arrows="1" fold="1" page="1" pageScale="1" pageWidth="827" pageHeight="1169" background="none" math="0" shadow="0">
      <root>
        <mxCell id="0" />
        <mxCell id="1" parent="0" />
        <mxCell id="4GkR5vhdz22uWZPQKLfX-42" value="" style="rounded=1;whiteSpace=wrap;html=1;strokeWidth=2;fillWeight=4;hachureGap=8;hachureAngle=45;sketch=1;shadow=0;labelBackgroundColor=none;fontSize=14;fillStyle=solid;fillColor=#f8cecc;strokeColor=#b85450;" vertex="1" parent="1">
          <mxGeometry x="880" y="140" width="379" height="200" as="geometry" />
        </mxCell>
        <mxCell id="iMJcLoLTZ3jONa1zufUQ-27" style="edgeStyle=orthogonalEdgeStyle;rounded=0;orthogonalLoop=1;jettySize=auto;html=1;exitX=0.5;exitY=1;exitDx=0;exitDy=0;entryX=0.5;entryY=0;entryDx=0;entryDy=0;strokeWidth=2;fontSize=13;" edge="1" parent="1" source="iMJcLoLTZ3jONa1zufUQ-1" target="iMJcLoLTZ3jONa1zufUQ-17">
          <mxGeometry relative="1" as="geometry" />
        </mxCell>
        <mxCell id="iMJcLoLTZ3jONa1zufUQ-28" style="edgeStyle=orthogonalEdgeStyle;rounded=0;orthogonalLoop=1;jettySize=auto;html=1;exitX=0.5;exitY=1;exitDx=0;exitDy=0;entryX=0.5;entryY=0;entryDx=0;entryDy=0;strokeWidth=2;fontSize=13;" edge="1" parent="1" source="iMJcLoLTZ3jONa1zufUQ-1" target="iMJcLoLTZ3jONa1zufUQ-19">
          <mxGeometry relative="1" as="geometry" />
        </mxCell>
        <mxCell id="iMJcLoLTZ3jONa1zufUQ-1" value="&lt;font size=&quot;1&quot;&gt;&lt;b style=&quot;font-size: 18px&quot;&gt;短链生成器&lt;/b&gt;&lt;/font&gt;" style="rounded=1;whiteSpace=wrap;html=1;strokeWidth=2;fillWeight=4;hachureGap=8;hachureAngle=45;sketch=1;fillColor=#FFDDBA;" vertex="1" parent="1">
          <mxGeometry x="309" y="51" width="120" height="60" as="geometry" />
        </mxCell>
        <mxCell id="iMJcLoLTZ3jONa1zufUQ-39" style="edgeStyle=orthogonalEdgeStyle;rounded=0;orthogonalLoop=1;jettySize=auto;html=1;exitX=1;exitY=0.5;exitDx=0;exitDy=0;entryX=0;entryY=0.5;entryDx=0;entryDy=0;strokeWidth=2;fontSize=13;" edge="1" parent="1" source="iMJcLoLTZ3jONa1zufUQ-16" target="iMJcLoLTZ3jONa1zufUQ-38">
          <mxGeometry relative="1" as="geometry" />
        </mxCell>
        <mxCell id="iMJcLoLTZ3jONa1zufUQ-16" value="&lt;span style=&quot;color: rgb(0 , 0 , 0) ; font-family: &amp;#34;helvetica&amp;#34; ; font-size: 13px ; font-style: normal ; font-weight: 400 ; letter-spacing: normal ; text-align: center ; text-indent: 0px ; text-transform: none ; word-spacing: 0px ; display: inline ; float: none&quot;&gt;短链是否重复&lt;/span&gt;" style="rhombus;whiteSpace=wrap;html=1;strokeWidth=2;fillWeight=-1;hachureGap=8;fillStyle=cross-hatch;sketch=1;fontSize=14;fillColor=none;" vertex="1" parent="1">
          <mxGeometry x="281" y="441" width="176" height="60" as="geometry" />
        </mxCell>
        <mxCell id="iMJcLoLTZ3jONa1zufUQ-30" style="edgeStyle=orthogonalEdgeStyle;rounded=0;orthogonalLoop=1;jettySize=auto;html=1;exitX=0.5;exitY=1;exitDx=0;exitDy=0;entryX=0.5;entryY=0;entryDx=0;entryDy=0;strokeWidth=2;fontSize=13;" edge="1" parent="1" source="iMJcLoLTZ3jONa1zufUQ-17" target="4GkR5vhdz22uWZPQKLfX-118">
          <mxGeometry relative="1" as="geometry">
            <Array as="points">
              <mxPoint x="240" y="271" />
              <mxPoint x="369" y="271" />
              <mxPoint x="369" y="320" />
            </Array>
          </mxGeometry>
        </mxCell>
        <mxCell id="iMJcLoLTZ3jONa1zufUQ-17" value="自定义短链" style="ellipse;whiteSpace=wrap;html=1;strokeWidth=2;fillWeight=2;hachureGap=8;fillStyle=dots;sketch=1;labelBackgroundColor=none;fontSize=13;fillColor=none;" vertex="1" parent="1">
          <mxGeometry x="180" y="171" width="120" height="50" as="geometry" />
        </mxCell>
        <mxCell id="iMJcLoLTZ3jONa1zufUQ-19" value="&lt;span style=&quot;font-size: 14px&quot;&gt;随机生成短链&lt;/span&gt;" style="ellipse;whiteSpace=wrap;html=1;strokeWidth=2;fillWeight=2;hachureGap=8;fillStyle=dots;sketch=1;labelBackgroundColor=none;fontSize=13;fillColor=none;" vertex="1" parent="1">
          <mxGeometry x="441" y="171" width="120" height="50" as="geometry" />
        </mxCell>
        <mxCell id="iMJcLoLTZ3jONa1zufUQ-29" style="edgeStyle=orthogonalEdgeStyle;rounded=0;orthogonalLoop=1;jettySize=auto;html=1;exitX=0.5;exitY=1;exitDx=0;exitDy=0;entryX=0.5;entryY=0;entryDx=0;entryDy=0;strokeWidth=2;fontSize=13;" edge="1" parent="1" source="iMJcLoLTZ3jONa1zufUQ-12" target="4GkR5vhdz22uWZPQKLfX-118">
          <mxGeometry relative="1" as="geometry">
            <Array as="points">
              <mxPoint x="501" y="271" />
              <mxPoint x="369" y="271" />
              <mxPoint x="369" y="320" />
            </Array>
          </mxGeometry>
        </mxCell>
        <mxCell id="iMJcLoLTZ3jONa1zufUQ-12" value="&lt;span style=&quot;font-size: 13px&quot;&gt;MurmurHash / ID 增发 （分布式）&lt;/span&gt;" style="rounded=1;whiteSpace=wrap;html=1;strokeWidth=2;fillWeight=4;hachureGap=8;hachureAngle=45;sketch=1;fontStyle=0;labelBackgroundColor=none;fontSize=13;fillColor=#D4E1F5;fillStyle=solid;" vertex="1" parent="1">
          <mxGeometry x="396" y="214" width="210" height="28" as="geometry" />
        </mxCell>
        <mxCell id="iMJcLoLTZ3jONa1zufUQ-40" style="edgeStyle=orthogonalEdgeStyle;rounded=0;orthogonalLoop=1;jettySize=auto;html=1;exitX=0.5;exitY=1;exitDx=0;exitDy=0;entryX=0.5;entryY=0;entryDx=0;entryDy=0;strokeWidth=2;fontSize=13;" edge="1" parent="1" source="iMJcLoLTZ3jONa1zufUQ-23" target="iMJcLoLTZ3jONa1zufUQ-34">
          <mxGeometry relative="1" as="geometry" />
        </mxCell>
        <mxCell id="iMJcLoLTZ3jONa1zufUQ-23" value="&lt;span style=&quot;font-size: 13px&quot;&gt;唯一索引 &amp;amp; 布隆过滤器&lt;/span&gt;" style="rounded=1;whiteSpace=wrap;html=1;strokeWidth=2;fillWeight=4;hachureGap=8;hachureAngle=45;sketch=1;fontStyle=0;labelBackgroundColor=none;fontSize=13;fillColor=#D4E1F5;fillStyle=solid;" vertex="1" parent="1">
          <mxGeometry x="294" y="490" width="150" height="28" as="geometry" />
        </mxCell>
        <mxCell id="iMJcLoLTZ3jONa1zufUQ-47" style="edgeStyle=orthogonalEdgeStyle;rounded=0;orthogonalLoop=1;jettySize=auto;html=1;exitX=0.5;exitY=1;exitDx=0;exitDy=0;entryX=0.5;entryY=0;entryDx=0;entryDy=0;strokeWidth=2;fontSize=13;" edge="1" parent="1" source="iMJcLoLTZ3jONa1zufUQ-34" target="iMJcLoLTZ3jONa1zufUQ-46">
          <mxGeometry relative="1" as="geometry" />
        </mxCell>
        <mxCell id="iMJcLoLTZ3jONa1zufUQ-34" value="&lt;p style=&quot;line-height: 140%&quot;&gt;MySQL&lt;br&gt;&amp;nbsp;持久化存储&lt;/p&gt;" style="html=1;whiteSpace=wrap;container=1;recursiveResize=0;collapsible=0;labelBackgroundColor=none;fontSize=13;rounded=1;shadow=0;sketch=1;strokeWidth=2;fillColor=none;" vertex="1" parent="1">
          <mxGeometry x="289" y="571" width="160" height="60" as="geometry" />
        </mxCell>
        <mxCell id="4GkR5vhdz22uWZPQKLfX-24" value="短链 &amp;amp; 源址 索引" style="rounded=1;whiteSpace=wrap;html=1;strokeWidth=2;fillWeight=4;hachureGap=8;hachureAngle=45;sketch=1;fontStyle=0;labelBackgroundColor=none;fontSize=13;fillColor=#D4E1F5;fillStyle=solid;" vertex="1" parent="iMJcLoLTZ3jONa1zufUQ-34">
          <mxGeometry x="5" y="52" width="150" height="28" as="geometry" />
        </mxCell>
        <mxCell id="iMJcLoLTZ3jONa1zufUQ-41" style="edgeStyle=orthogonalEdgeStyle;rounded=0;orthogonalLoop=1;jettySize=auto;html=1;exitX=0.5;exitY=1;exitDx=0;exitDy=0;entryX=1;entryY=0.5;entryDx=0;entryDy=0;strokeWidth=2;fontSize=13;" edge="1" parent="1" source="iMJcLoLTZ3jONa1zufUQ-38" target="iMJcLoLTZ3jONa1zufUQ-34">
          <mxGeometry relative="1" as="geometry" />
        </mxCell>
        <mxCell id="iMJcLoLTZ3jONa1zufUQ-38" value="&lt;font style=&quot;font-size: 13px&quot;&gt;拼接特殊字符后重试&lt;/font&gt;" style="rounded=1;whiteSpace=wrap;html=1;strokeWidth=2;fillWeight=4;hachureGap=8;hachureAngle=45;sketch=1;labelBackgroundColor=none;fontSize=13;fillStyle=auto;fillColor=none;" vertex="1" parent="1">
          <mxGeometry x="529" y="441" width="159" height="60" as="geometry" />
        </mxCell>
        <mxCell id="iMJcLoLTZ3jONa1zufUQ-46" value="&lt;p style=&quot;line-height: 140%&quot;&gt;缓存（多级）&lt;br&gt;redis / memcached&lt;br&gt;&lt;/p&gt;" style="html=1;whiteSpace=wrap;container=1;recursiveResize=0;collapsible=0;labelBackgroundColor=none;fontSize=13;rounded=1;shadow=0;sketch=1;strokeWidth=2;dashed=1;fillColor=none;" vertex="1" parent="1">
          <mxGeometry x="289" y="711" width="160" height="60" as="geometry" />
        </mxCell>
        <mxCell id="4GkR5vhdz22uWZPQKLfX-22" style="edgeStyle=orthogonalEdgeStyle;rounded=0;orthogonalLoop=1;jettySize=auto;html=1;exitX=0.5;exitY=1;exitDx=0;exitDy=0;strokeWidth=2;fontSize=13;" edge="1" parent="1" source="4GkR5vhdz22uWZPQKLfX-3" target="4GkR5vhdz22uWZPQKLfX-21">
          <mxGeometry relative="1" as="geometry" />
        </mxCell>
        <mxCell id="4GkR5vhdz22uWZPQKLfX-3" value="&lt;font size=&quot;1&quot;&gt;&lt;b style=&quot;font-size: 18px&quot;&gt;短链跳转器&lt;/b&gt;&lt;/font&gt;" style="rounded=1;whiteSpace=wrap;html=1;strokeWidth=2;fillWeight=4;hachureGap=8;hachureAngle=45;sketch=1;fillColor=#D1E6F0;" vertex="1" parent="1">
          <mxGeometry x="979" y="50" width="120" height="60" as="geometry" />
        </mxCell>
        <mxCell id="4GkR5vhdz22uWZPQKLfX-30" style="edgeStyle=orthogonalEdgeStyle;rounded=0;orthogonalLoop=1;jettySize=auto;html=1;exitX=0.5;exitY=1;exitDx=0;exitDy=0;entryX=0.5;entryY=0;entryDx=0;entryDy=0;strokeWidth=2;fontSize=13;" edge="1" parent="1" source="4GkR5vhdz22uWZPQKLfX-14" target="4GkR5vhdz22uWZPQKLfX-27">
          <mxGeometry relative="1" as="geometry" />
        </mxCell>
        <mxCell id="4GkR5vhdz22uWZPQKLfX-14" value="&lt;p style=&quot;line-height: 140%&quot;&gt;MySQL&lt;br&gt;&amp;nbsp;持久化存储&lt;/p&gt;" style="html=1;whiteSpace=wrap;container=1;recursiveResize=0;collapsible=0;labelBackgroundColor=none;fontSize=13;rounded=1;shadow=0;sketch=1;strokeWidth=2;fillColor=none;" vertex="1" parent="1">
          <mxGeometry x="959" y="255" width="160" height="60" as="geometry" />
        </mxCell>
        <mxCell id="4GkR5vhdz22uWZPQKLfX-18" value="&lt;font style=&quot;font-size: 14px&quot;&gt;有效&lt;font style=&quot;font-size: 14px&quot;&gt;状态&lt;/font&gt;&lt;/font&gt;" style="text;strokeColor=none;html=1;fontSize=24;fontStyle=1;verticalAlign=middle;align=center;rounded=1;shadow=0;dashed=1;labelBackgroundColor=none;sketch=1;fillColor=#ffffff;" vertex="1" parent="1">
          <mxGeometry x="318" y="664" width="100" height="20" as="geometry" />
        </mxCell>
        <mxCell id="4GkR5vhdz22uWZPQKLfX-23" style="edgeStyle=orthogonalEdgeStyle;rounded=0;orthogonalLoop=1;jettySize=auto;html=1;exitX=0.5;exitY=1;exitDx=0;exitDy=0;entryX=0.5;entryY=0;entryDx=0;entryDy=0;strokeWidth=2;fontSize=13;" edge="1" parent="1" source="4GkR5vhdz22uWZPQKLfX-21" target="4GkR5vhdz22uWZPQKLfX-14">
          <mxGeometry relative="1" as="geometry" />
        </mxCell>
        <mxCell id="4GkR5vhdz22uWZPQKLfX-21" value="&lt;p style=&quot;line-height: 140%&quot;&gt;缓存（多级）&lt;br&gt;redis / memcached&lt;br&gt;&lt;/p&gt;" style="html=1;whiteSpace=wrap;container=1;recursiveResize=0;collapsible=0;labelBackgroundColor=none;fontSize=13;rounded=1;shadow=0;sketch=1;strokeWidth=2;dashed=1;fillColor=none;" vertex="1" parent="1">
          <mxGeometry x="959" y="160" width="160" height="60" as="geometry" />
        </mxCell>
        <mxCell id="4GkR5vhdz22uWZPQKLfX-25" value="可使用状态 &amp;amp; 过期时间" style="rounded=1;whiteSpace=wrap;html=1;strokeWidth=2;fillWeight=4;hachureGap=8;hachureAngle=45;sketch=1;fontStyle=0;labelBackgroundColor=none;fontSize=13;fillColor=#D4E1F5;fillStyle=solid;" vertex="1" parent="1">
          <mxGeometry x="294" y="764" width="150" height="28" as="geometry" />
        </mxCell>
        <mxCell id="4GkR5vhdz22uWZPQKLfX-27" value="&lt;font style=&quot;font-size: 13px&quot;&gt;解析源址&lt;/font&gt;" style="rounded=1;whiteSpace=wrap;html=1;strokeWidth=2;fillWeight=4;hachureGap=8;hachureAngle=45;sketch=1;labelBackgroundColor=none;fontSize=13;fillStyle=auto;fillColor=none;" vertex="1" parent="1">
          <mxGeometry x="954" y="372" width="170" height="60" as="geometry" />
        </mxCell>
        <mxCell id="4GkR5vhdz22uWZPQKLfX-36" style="edgeStyle=orthogonalEdgeStyle;rounded=0;orthogonalLoop=1;jettySize=auto;html=1;exitX=0.5;exitY=1;exitDx=0;exitDy=0;strokeWidth=2;fontSize=13;" edge="1" parent="1" source="4GkR5vhdz22uWZPQKLfX-32" target="4GkR5vhdz22uWZPQKLfX-34">
          <mxGeometry relative="1" as="geometry" />
        </mxCell>
        <mxCell id="4GkR5vhdz22uWZPQKLfX-32" value="可用状态 &amp;amp; 删除拼接字符" style="rounded=1;whiteSpace=wrap;html=1;strokeWidth=2;fillWeight=4;hachureGap=8;hachureAngle=45;sketch=1;fontStyle=0;labelBackgroundColor=none;fontSize=13;fillStyle=solid;fillColor=#FFD5B0;" vertex="1" parent="1">
          <mxGeometry x="961.5" y="417" width="155" height="35" as="geometry" />
        </mxCell>
        <mxCell id="4GkR5vhdz22uWZPQKLfX-34" value="&lt;p style=&quot;line-height: 140%&quot;&gt;跳转至源址&lt;/p&gt;" style="html=1;whiteSpace=wrap;container=1;recursiveResize=0;collapsible=0;labelBackgroundColor=none;fontSize=13;rounded=1;shadow=0;sketch=1;strokeWidth=2;fillColor=none;" vertex="1" parent="1">
          <mxGeometry x="959.5" y="506" width="160" height="44" as="geometry" />
        </mxCell>
        <mxCell id="4GkR5vhdz22uWZPQKLfX-46" style="edgeStyle=orthogonalEdgeStyle;rounded=0;orthogonalLoop=1;jettySize=auto;html=1;exitX=0.5;exitY=1;exitDx=0;exitDy=0;entryX=0.445;entryY=-0.091;entryDx=0;entryDy=0;entryPerimeter=0;strokeWidth=2;fontSize=14;" edge="1" parent="1" source="4GkR5vhdz22uWZPQKLfX-41" target="4GkR5vhdz22uWZPQKLfX-44">
          <mxGeometry relative="1" as="geometry" />
        </mxCell>
        <mxCell id="4GkR5vhdz22uWZPQKLfX-47" style="edgeStyle=orthogonalEdgeStyle;rounded=0;orthogonalLoop=1;jettySize=auto;html=1;exitX=0.5;exitY=1;exitDx=0;exitDy=0;entryX=0.5;entryY=0;entryDx=0;entryDy=0;strokeWidth=2;fontSize=14;" edge="1" parent="1" source="4GkR5vhdz22uWZPQKLfX-41" target="4GkR5vhdz22uWZPQKLfX-45">
          <mxGeometry relative="1" as="geometry" />
        </mxCell>
        <mxCell id="4GkR5vhdz22uWZPQKLfX-41" value="带参" style="rounded=1;whiteSpace=wrap;html=1;strokeWidth=2;fillWeight=4;hachureGap=8;hachureAngle=45;sketch=1;fontStyle=0;labelBackgroundColor=none;fontSize=13;fillStyle=solid;fillColor=#FFD5B0;" vertex="1" parent="1">
          <mxGeometry x="999.25" y="540" width="80.5" height="30" as="geometry" />
        </mxCell>
        <mxCell id="4GkR5vhdz22uWZPQKLfX-43" value="瓶颈" style="text;strokeColor=none;fillColor=none;html=1;fontSize=24;fontStyle=1;verticalAlign=middle;align=center;rounded=1;shadow=0;labelBackgroundColor=none;sketch=1;" vertex="1" parent="1">
          <mxGeometry x="1139" y="220" width="100" height="40" as="geometry" />
        </mxCell>
        <mxCell id="4GkR5vhdz22uWZPQKLfX-49" style="edgeStyle=orthogonalEdgeStyle;rounded=0;orthogonalLoop=1;jettySize=auto;html=1;exitX=0.5;exitY=1;exitDx=0;exitDy=0;strokeWidth=2;fontSize=14;dashed=1;" edge="1" parent="1" source="4GkR5vhdz22uWZPQKLfX-44" target="4GkR5vhdz22uWZPQKLfX-48">
          <mxGeometry relative="1" as="geometry" />
        </mxCell>
        <mxCell id="4GkR5vhdz22uWZPQKLfX-44" value="&lt;p style=&quot;line-height: 140%&quot;&gt;返回指标信息&lt;/p&gt;" style="html=1;whiteSpace=wrap;container=1;recursiveResize=0;collapsible=0;labelBackgroundColor=none;fontSize=13;rounded=1;shadow=0;sketch=1;strokeWidth=2;fillColor=none;" vertex="1" parent="1">
          <mxGeometry x="889" y="625" width="110" height="44" as="geometry" />
        </mxCell>
        <mxCell id="4GkR5vhdz22uWZPQKLfX-50" style="edgeStyle=orthogonalEdgeStyle;rounded=0;orthogonalLoop=1;jettySize=auto;html=1;exitX=0.5;exitY=1;exitDx=0;exitDy=0;entryX=0.5;entryY=0;entryDx=0;entryDy=0;strokeWidth=2;fontSize=14;dashed=1;" edge="1" parent="1" source="4GkR5vhdz22uWZPQKLfX-45" target="4GkR5vhdz22uWZPQKLfX-48">
          <mxGeometry relative="1" as="geometry" />
        </mxCell>
        <mxCell id="4GkR5vhdz22uWZPQKLfX-45" value="&lt;p style=&quot;line-height: 140%&quot;&gt;第三方接入回调&lt;/p&gt;" style="html=1;whiteSpace=wrap;container=1;recursiveResize=0;collapsible=0;labelBackgroundColor=none;fontSize=13;rounded=1;shadow=0;sketch=1;strokeWidth=2;fillColor=none;" vertex="1" parent="1">
          <mxGeometry x="1080.75" y="625" width="110" height="44" as="geometry" />
        </mxCell>
        <mxCell id="4GkR5vhdz22uWZPQKLfX-48" value="&lt;p style=&quot;line-height: 140%&quot;&gt;记录数据&lt;/p&gt;" style="html=1;whiteSpace=wrap;container=1;recursiveResize=0;collapsible=0;labelBackgroundColor=none;fontSize=13;rounded=1;shadow=0;sketch=1;strokeWidth=2;fillColor=none;" vertex="1" parent="1">
          <mxGeometry x="929" y="755" width="227.5" height="70" as="geometry" />
        </mxCell>
        <mxCell id="4GkR5vhdz22uWZPQKLfX-51" value="异步统计" style="rounded=1;whiteSpace=wrap;html=1;strokeWidth=2;fillWeight=4;hachureGap=8;hachureAngle=45;sketch=1;fontStyle=0;labelBackgroundColor=none;fontSize=13;fillStyle=solid;fillColor=#FFD5B0;" vertex="1" parent="1">
          <mxGeometry x="998.75" y="695" width="80.5" height="30" as="geometry" />
        </mxCell>
        <mxCell id="4GkR5vhdz22uWZPQKLfX-52" value="断电可恢复 &amp;amp; 过滤重复点击" style="rounded=1;whiteSpace=wrap;html=1;strokeWidth=2;fillWeight=4;hachureGap=8;hachureAngle=45;sketch=1;fontStyle=0;labelBackgroundColor=none;fontSize=13;fillStyle=solid;fillColor=#FFD5B0;" vertex="1" parent="1">
          <mxGeometry x="954" y="808" width="180" height="30" as="geometry" />
        </mxCell>
        <mxCell id="4GkR5vhdz22uWZPQKLfX-53" style="edgeStyle=orthogonalEdgeStyle;rounded=0;orthogonalLoop=1;jettySize=auto;html=1;exitX=0.5;exitY=1;exitDx=0;exitDy=0;dashed=1;strokeWidth=2;fontSize=14;" edge="1" parent="1" source="4GkR5vhdz22uWZPQKLfX-52" target="4GkR5vhdz22uWZPQKLfX-52">
          <mxGeometry relative="1" as="geometry" />
        </mxCell>
        <mxCell id="4GkR5vhdz22uWZPQKLfX-122" style="rounded=1;orthogonalLoop=1;jettySize=auto;html=1;exitX=0.5;exitY=1;exitDx=0;exitDy=0;entryX=0.5;entryY=0;entryDx=0;entryDy=0;strokeWidth=2;fontSize=14;edgeStyle=orthogonalEdgeStyle;" edge="1" parent="1" source="4GkR5vhdz22uWZPQKLfX-100" target="4GkR5vhdz22uWZPQKLfX-102">
          <mxGeometry relative="1" as="geometry" />
        </mxCell>
        <mxCell id="4GkR5vhdz22uWZPQKLfX-100" value="&lt;font size=&quot;1&quot;&gt;&lt;b style=&quot;font-size: 18px&quot;&gt;源址审核器&lt;/b&gt;&lt;/font&gt;" style="rounded=1;whiteSpace=wrap;html=1;strokeWidth=2;fillWeight=4;hachureGap=8;hachureAngle=45;sketch=1;fillColor=#F8D7D3;" vertex="1" parent="1">
          <mxGeometry x="-256.5" y="330" width="120" height="60" as="geometry" />
        </mxCell>
        <mxCell id="4GkR5vhdz22uWZPQKLfX-102" value="&lt;span style=&quot;font-size: 13px&quot;&gt;网页&lt;/span&gt;&lt;span style=&quot;font-size: 13px&quot;&gt;内容包含敏感词&lt;/span&gt;" style="rhombus;whiteSpace=wrap;html=1;strokeWidth=2;fillWeight=-1;hachureGap=8;fillStyle=cross-hatch;sketch=1;fontSize=14;fillColor=none;" vertex="1" parent="1">
          <mxGeometry x="-300" y="433" width="207" height="80" as="geometry" />
        </mxCell>
        <mxCell id="4GkR5vhdz22uWZPQKLfX-132" style="edgeStyle=orthogonalEdgeStyle;rounded=0;orthogonalLoop=1;jettySize=auto;html=1;exitX=0.5;exitY=1;exitDx=0;exitDy=0;strokeColor=#000000;strokeWidth=2;fontSize=14;entryX=0.5;entryY=0;entryDx=0;entryDy=0;" edge="1" parent="1" source="4GkR5vhdz22uWZPQKLfX-109" target="4GkR5vhdz22uWZPQKLfX-133">
          <mxGeometry relative="1" as="geometry">
            <mxPoint x="-197" y="580" as="targetPoint" />
          </mxGeometry>
        </mxCell>
        <mxCell id="4GkR5vhdz22uWZPQKLfX-109" value="定期更新 &amp;amp; AC 自动机" style="rounded=1;whiteSpace=wrap;html=1;strokeWidth=2;fillWeight=4;hachureGap=8;hachureAngle=45;sketch=1;fontStyle=0;labelBackgroundColor=none;fontSize=13;fillStyle=solid;fillColor=#FFDDBA;" vertex="1" parent="1">
          <mxGeometry x="-272.5" y="490" width="150" height="28" as="geometry" />
        </mxCell>
        <mxCell id="4GkR5vhdz22uWZPQKLfX-120" style="edgeStyle=orthogonalEdgeStyle;rounded=1;orthogonalLoop=1;jettySize=auto;html=1;exitX=0;exitY=0.5;exitDx=0;exitDy=0;entryX=1;entryY=0.5;entryDx=0;entryDy=0;strokeWidth=2;fontSize=14;curved=1;" edge="1" parent="1" source="4GkR5vhdz22uWZPQKLfX-118" target="4GkR5vhdz22uWZPQKLfX-100">
          <mxGeometry relative="1" as="geometry" />
        </mxCell>
        <mxCell id="4GkR5vhdz22uWZPQKLfX-121" style="edgeStyle=orthogonalEdgeStyle;curved=1;rounded=1;orthogonalLoop=1;jettySize=auto;html=1;exitX=0.5;exitY=1;exitDx=0;exitDy=0;strokeWidth=2;fontSize=14;" edge="1" parent="1" source="4GkR5vhdz22uWZPQKLfX-118" target="iMJcLoLTZ3jONa1zufUQ-16">
          <mxGeometry relative="1" as="geometry" />
        </mxCell>
        <mxCell id="4GkR5vhdz22uWZPQKLfX-118" value="&lt;span style=&quot;color: rgb(0 , 0 , 0) ; font-family: &amp;#34;helvetica&amp;#34; ; font-size: 13px ; font-style: normal ; font-weight: 400 ; letter-spacing: normal ; text-align: center ; text-indent: 0px ; text-transform: none ; word-spacing: 0px ; display: inline ; float: none&quot;&gt;源址审核&lt;/span&gt;" style="rhombus;whiteSpace=wrap;html=1;strokeWidth=2;fillWeight=-1;hachureGap=8;fillStyle=hachure;sketch=1;fontSize=14;fillColor=#F8D7D3;" vertex="1" parent="1">
          <mxGeometry x="281" y="330" width="176" height="60" as="geometry" />
        </mxCell>
        <mxCell id="4GkR5vhdz22uWZPQKLfX-139" style="edgeStyle=orthogonalEdgeStyle;rounded=0;orthogonalLoop=1;jettySize=auto;html=1;exitX=0.5;exitY=1;exitDx=0;exitDy=0;strokeColor=#000000;strokeWidth=2;fontSize=14;" edge="1" parent="1" source="4GkR5vhdz22uWZPQKLfX-123" target="4GkR5vhdz22uWZPQKLfX-138">
          <mxGeometry relative="1" as="geometry" />
        </mxCell>
        <mxCell id="4GkR5vhdz22uWZPQKLfX-123" value="&lt;span style=&quot;font-size: 13px&quot;&gt;网页&lt;/span&gt;&lt;span style=&quot;font-size: 13px&quot;&gt;内容是否变更&lt;/span&gt;" style="rhombus;whiteSpace=wrap;html=1;strokeWidth=2;fillWeight=-1;hachureGap=8;fillStyle=cross-hatch;sketch=1;fontSize=14;fillColor=none;" vertex="1" parent="1">
          <mxGeometry x="-297.75" y="815" width="207" height="75" as="geometry" />
        </mxCell>
        <mxCell id="4GkR5vhdz22uWZPQKLfX-129" style="edgeStyle=orthogonalEdgeStyle;rounded=0;orthogonalLoop=1;jettySize=auto;html=1;exitX=0.5;exitY=1;exitDx=0;exitDy=0;entryX=0.5;entryY=0;entryDx=0;entryDy=0;strokeColor=#000000;strokeWidth=2;fontSize=14;" edge="1" parent="1" source="4GkR5vhdz22uWZPQKLfX-128" target="4GkR5vhdz22uWZPQKLfX-123">
          <mxGeometry relative="1" as="geometry" />
        </mxCell>
        <mxCell id="4GkR5vhdz22uWZPQKLfX-128" value="&lt;font size=&quot;1&quot;&gt;&lt;b style=&quot;font-size: 18px&quot;&gt;定时检测&lt;/b&gt;&lt;/font&gt;" style="rounded=1;whiteSpace=wrap;html=1;strokeWidth=2;fillWeight=4;hachureGap=8;hachureAngle=45;sketch=1;fillColor=#F8D7D3;" vertex="1" parent="1">
          <mxGeometry x="-257.5" y="725" width="120" height="60" as="geometry" />
        </mxCell>
        <mxCell id="4GkR5vhdz22uWZPQKLfX-131" value="&lt;font style=&quot;font-size: 14px&quot;&gt;是&lt;/font&gt;" style="text;strokeColor=none;fillColor=none;html=1;fontSize=24;fontStyle=1;verticalAlign=middle;align=center;rounded=1;shadow=0;labelBackgroundColor=#ffffff;sketch=1;" vertex="1" parent="1">
          <mxGeometry x="-242.5" y="900" width="94.5" height="30" as="geometry" />
        </mxCell>
        <mxCell id="4GkR5vhdz22uWZPQKLfX-136" style="edgeStyle=orthogonalEdgeStyle;rounded=0;orthogonalLoop=1;jettySize=auto;html=1;exitX=0.5;exitY=1;exitDx=0;exitDy=0;strokeColor=#000000;strokeWidth=2;fontSize=14;" edge="1" parent="1" source="4GkR5vhdz22uWZPQKLfX-133" target="4GkR5vhdz22uWZPQKLfX-128">
          <mxGeometry relative="1" as="geometry" />
        </mxCell>
        <mxCell id="4GkR5vhdz22uWZPQKLfX-133" value="&lt;p style=&quot;line-height: 140%&quot;&gt;审核通过&lt;/p&gt;" style="html=1;whiteSpace=wrap;container=1;recursiveResize=0;collapsible=0;labelBackgroundColor=none;fontSize=13;rounded=1;shadow=0;sketch=1;strokeWidth=2;fillColor=none;" vertex="1" parent="1">
          <mxGeometry x="-277.5" y="585" width="160" height="60" as="geometry" />
        </mxCell>
        <mxCell id="4GkR5vhdz22uWZPQKLfX-137" value="&lt;font style=&quot;font-size: 14px&quot;&gt;加入&lt;/font&gt;" style="text;strokeColor=none;fillColor=none;html=1;fontSize=24;fontStyle=1;verticalAlign=middle;align=center;rounded=1;shadow=0;labelBackgroundColor=#ffffff;sketch=1;" vertex="1" parent="1">
          <mxGeometry x="-221.5" y="666" width="50" height="25" as="geometry" />
        </mxCell>
        <mxCell id="4GkR5vhdz22uWZPQKLfX-142" style="edgeStyle=orthogonalEdgeStyle;rounded=0;orthogonalLoop=1;jettySize=auto;html=1;exitX=0;exitY=0.5;exitDx=0;exitDy=0;entryX=0;entryY=0.5;entryDx=0;entryDy=0;strokeColor=#000000;strokeWidth=2;fontSize=14;" edge="1" parent="1" source="4GkR5vhdz22uWZPQKLfX-138" target="4GkR5vhdz22uWZPQKLfX-100">
          <mxGeometry relative="1" as="geometry">
            <Array as="points">
              <mxPoint x="-480" y="975" />
              <mxPoint x="-480" y="360" />
            </Array>
          </mxGeometry>
        </mxCell>
        <mxCell id="4GkR5vhdz22uWZPQKLfX-138" value="&lt;p style=&quot;line-height: 140%&quot;&gt;置为未审核状态&lt;/p&gt;" style="html=1;whiteSpace=wrap;container=1;recursiveResize=0;collapsible=0;labelBackgroundColor=none;fontSize=13;rounded=1;shadow=0;sketch=1;strokeWidth=2;fillColor=none;" vertex="1" parent="1">
          <mxGeometry x="-274.25" y="950" width="160" height="50" as="geometry" />
        </mxCell>
        <mxCell id="4GkR5vhdz22uWZPQKLfX-141" value="告警" style="rounded=1;whiteSpace=wrap;html=1;strokeWidth=2;fillWeight=4;hachureGap=8;hachureAngle=45;sketch=1;fontStyle=0;labelBackgroundColor=none;fontSize=13;fillStyle=solid;fillColor=#FFDDBA;" vertex="1" parent="1">
          <mxGeometry x="-235.5" y="990" width="82.5" height="28" as="geometry" />
        </mxCell>
      </root>
    </mxGraphModel>
  </diagram>
</mxfile>
